<svg width="285" height="285" viewBox="0 0 285 285" fill="none" xmlns="http://www.w3.org/2000/svg">
<path fill-rule="evenodd" clip-rule="evenodd" d="M52.2367 50.0017C53.3102 49.9841 54.806 50.1071 55.5803 50.2653C56.3546 50.4058 57.5865 50.7748 58.308 51.0736C59.2759 51.4777 59.8919 51.8994 60.6134 52.6023C61.2997 53.2876 61.6869 53.8499 61.898 54.4649C62.074 55.0272 62.2148 56.0991 62.25 57.4521C62.3028 58.9281 62.25 59.8594 62.0564 60.5272C61.9156 61.0543 61.5989 61.8451 61.3349 62.2843C61.0885 62.7236 60.6662 63.3211 60.4022 63.6022C60.1558 63.8834 59.3287 64.4632 58.5544 64.8674C57.7977 65.254 56.4426 65.8163 55.5803 66.0798C54.2957 66.484 53.6621 66.5719 52.2367 66.5894C50.7056 66.5894 50.3713 66.5367 49.6849 66.1677C49.245 65.9393 48.3827 65.2188 47.7492 64.5862C47.0452 63.8658 46.3941 62.9872 46.0421 62.2843C45.743 61.6518 45.391 60.8259 45.2678 60.4393C45.1446 60.0527 45.039 58.8579 45.0214 55.8531L45.9189 54.0256C46.6053 52.6199 47.0452 52.0049 47.6788 51.425C48.1539 51.0033 48.9282 50.5113 49.421 50.3355C50.0897 50.0895 50.776 50.0017 52.2367 50.0017ZM53.5565 76.1836C55.1932 76.166 56.2138 76.2363 56.8122 76.4121C57.3049 76.5702 58.0441 76.9744 58.4664 77.3434C58.8888 77.7124 59.3815 78.2922 59.5399 78.6261C59.7159 78.96 59.9447 79.7156 60.0326 80.2954C60.1382 80.8753 60.3142 84.2315 60.4374 87.7634C60.5958 92.6484 60.5958 95.0557 60.4374 97.8672C60.3318 99.888 60.1558 102.787 60.0678 104.281C59.9798 105.774 59.7863 109.693 59.6279 112.979C59.4871 116.265 59.2935 121.993 59.1879 125.718C59.0823 129.444 59.012 137.615 59.012 143.905C59.012 150.178 59.0823 158.876 59.1879 163.234C59.2759 167.574 59.4519 177.819 59.5575 185.99C59.6807 194.161 59.7687 204.089 59.7863 208.042C59.8039 212.98 59.7335 215.862 59.5751 217.18C59.4519 218.234 59.2583 219.622 59.1527 220.255C59.0471 220.887 58.8712 221.59 58.748 221.836C58.6248 222.082 58.2904 222.486 57.9737 222.75C57.6745 223.031 57.0938 223.33 56.689 223.435C56.2666 223.541 55.3339 223.593 54.6124 223.541C53.8029 223.505 52.9582 223.312 52.4127 223.084C51.9375 222.873 51.2688 222.504 50.9696 222.258C50.6528 222.029 50.1953 221.502 49.9489 221.081C49.7025 220.676 49.3858 219.903 49.2274 219.376C48.9634 218.533 48.9282 216.951 48.8754 207.164C48.8226 200.978 48.7698 195.601 48.717 195.215C48.6643 194.828 48.5235 194.371 48.4179 194.178C48.1891 193.862 48.1715 193.862 47.5732 194.161C47.2388 194.336 46.3237 195.127 45.567 195.9C44.8103 196.691 43.7192 197.886 43.1736 198.553C42.6105 199.221 41.6778 200.539 41.0619 201.453C40.4635 202.367 39.3196 204.475 38.5101 206.109C37.7006 207.744 36.416 210.643 35.6416 212.523C34.8673 214.403 33.9874 216.459 33.7058 217.092C33.4243 217.724 33.1427 218.445 33.0899 218.708C33.0195 218.989 32.65 219.85 32.2628 220.641C31.8932 221.449 31.2949 222.398 30.9429 222.75C30.6086 223.119 30.063 223.558 29.7639 223.716C29.3239 223.945 28.796 224.015 27.6873 223.997C26.8602 223.98 25.8043 223.874 25.3115 223.769C24.8364 223.664 24.0445 223.435 23.5517 223.295C23.0766 223.136 22.4079 222.838 22.1087 222.609C21.7919 222.381 21.4048 221.959 21.264 221.66C21.1232 221.362 21 220.764 21 220.29C21 219.833 21.1584 218.708 21.352 217.795C21.5631 216.881 21.8095 215.721 21.8975 215.247C22.0031 214.755 22.1615 214.052 22.2495 213.665C22.3375 213.279 22.4782 212.681 22.5662 212.347C22.6542 212.013 22.9182 210.977 23.1646 210.063C23.4285 209.149 23.9389 207.48 24.326 206.373C24.6956 205.266 25.2587 203.755 25.5403 203.034C25.8219 202.314 26.4026 201.014 26.825 200.135C27.2473 199.256 28.0568 197.728 28.62 196.708C29.2007 195.689 30.3094 193.967 31.1013 192.878C31.8756 191.771 32.65 190.699 32.7907 190.506C32.9315 190.295 33.6003 189.504 34.2866 188.731C34.9553 187.975 36.5039 186.464 37.7182 185.375C38.9325 184.285 41.0267 182.475 42.3817 181.333C43.7368 180.191 45.0038 179.102 45.215 178.891C45.4262 178.697 46.0773 178.047 46.6757 177.467C47.4324 176.729 47.8547 176.149 48.0835 175.534C48.3827 174.744 48.4355 173.602 48.6115 164.816C48.717 159.404 48.893 150.741 48.981 145.575C49.069 140.408 49.2098 134.416 49.421 128.389L44.7575 128.302C41.273 128.249 39.7596 128.143 38.7741 127.933C38.0526 127.757 36.6975 127.265 35.7824 126.825C34.4098 126.158 33.8642 125.771 32.738 124.629C31.946 123.821 30.7846 122.345 29.9047 121.009C29.0951 119.779 28.0393 117.987 27.5465 117.02C27.0714 116.054 26.385 114.508 26.0507 113.594C25.6987 112.68 25.2939 111.45 25.1356 110.87C24.9948 110.29 24.7484 109.254 24.6076 108.586C24.4844 107.901 24.2909 106.407 24.1853 105.247C24.0621 103.824 24.0445 102.366 24.1677 100.767C24.2557 99.4662 24.4316 97.8848 24.5372 97.2522C24.6428 96.6196 24.8364 95.6004 24.9948 94.9679C25.1356 94.3353 25.5051 93.158 25.7867 92.3321C26.0859 91.5062 26.5258 90.4343 26.7546 89.9599C27.001 89.4679 27.6345 88.4136 28.1624 87.5877C28.7432 86.7091 29.8695 85.3737 30.9253 84.3194C31.8932 83.3529 33.3011 82.158 34.0226 81.7012C34.7441 81.2267 36.2048 80.436 37.2783 79.9264C38.3518 79.4168 40.0412 78.7315 41.0619 78.3977C42.0826 78.0638 43.6664 77.5894 44.5815 77.3434C45.4966 77.0974 46.8868 76.8162 47.6612 76.6932C48.4355 76.5878 49.5442 76.4296 50.1249 76.3593C50.7056 76.2715 52.2543 76.2012 53.5565 76.1836ZM42.1178 92.7714C41.2026 93.3688 39.8124 94.4231 39.0557 95.0733C38.2814 95.741 37.1199 96.9535 36.4512 97.7793C35.7824 98.6052 34.9729 99.7825 34.6561 100.415C34.3394 101.048 33.9698 101.997 33.8466 102.524C33.7234 103.051 33.6179 103.929 33.6179 104.457C33.6355 104.984 33.7234 105.775 33.829 106.214C33.9522 106.653 34.1986 107.444 34.4098 107.971C34.621 108.498 35.0785 109.447 35.4305 110.08C35.8 110.712 36.4864 111.679 36.9439 112.223C37.4191 112.786 38.3517 113.664 39.0381 114.209C39.7244 114.736 40.9035 115.492 41.6778 115.878C42.4521 116.247 43.684 116.757 44.4055 117.003C45.127 117.231 46.2357 117.512 46.8692 117.618C47.5028 117.723 48.2243 117.811 48.5059 117.811H48.981C48.981 92.1388 48.9282 89.1692 48.7698 89.1692C48.6467 89.1867 47.4676 89.749 46.1653 90.4168C44.8631 91.1021 43.0329 92.1564 42.1178 92.7714Z" fill="#4ABCA9"/>
<path d="M89.8582 90.1341C91.219 90.1341 91.219 92.3341 89.8582 92.2694C88.5621 92.2694 87.2013 92.2694 85.9052 92.2694C86.0348 107.41 86.0996 122.616 86.2292 137.822C86.2292 139.18 84.026 139.18 84.026 137.822C83.8964 122.616 83.8316 107.41 83.7668 92.2694C82.3411 92.2694 80.9155 92.2694 79.5546 92.2694C78.129 92.3341 78.129 90.1341 79.5546 90.1341C82.9891 90.0694 86.4237 90.0694 89.8582 90.1341Z" fill="#4ABCA9"/>
<path d="M116.392 132.063C116.716 134.392 115.938 136.786 113.865 138.08C111.791 139.375 109.134 139.31 106.801 138.857C106.283 138.728 105.959 138.404 105.959 137.822C105.894 122.292 105.765 106.763 105.7 91.2341C105.7 90.7165 106.089 90.1341 106.931 90.1341C109.199 90.0047 111.856 89.8753 113.93 90.9753C115.938 92.0753 116.651 94.3399 116.392 96.4752C115.938 100.81 111.661 101.91 107.903 101.652C107.968 110.193 108.033 118.798 108.097 127.339C111.661 127.081 115.744 127.922 116.392 132.063ZM112.31 92.6576C110.949 92.2047 109.393 92.2047 107.903 92.2694C107.903 94.6635 107.903 97.0575 107.903 99.5163C110.495 99.7105 113.93 99.2575 114.254 96.2164C114.383 94.5988 113.865 93.1753 112.31 92.6576ZM112.634 136.269C114.124 135.363 114.513 133.681 114.189 132.128C113.541 129.475 110.43 129.281 108.097 129.475C108.097 131.934 108.162 134.392 108.162 136.916C109.653 137.11 111.337 137.045 112.634 136.269Z" fill="#4ABCA9"/>
<path d="M143.728 97.5105C144.311 103.593 144.117 109.869 144.052 116.016C144.052 118.863 144.117 121.775 144.052 124.622C143.987 127.728 144.052 131.092 143.209 134.069V134.133C142.497 136.269 141.136 138.404 138.803 138.792C137.183 139.116 135.628 138.469 134.591 137.175C132.452 134.522 132.387 130.575 132.258 127.339C132.063 122.228 131.934 117.116 131.934 112.004C131.934 109.287 131.999 106.634 132.128 103.916C132.193 101.587 132.193 99.1928 132.452 96.8634C132.906 93.4988 134.591 89.7459 138.608 90.1341C142.237 90.5224 143.469 94.4046 143.728 97.5105ZM137.636 136.657C139.516 136.981 140.617 135.039 141.071 133.551C141.978 130.575 141.849 127.145 141.849 124.04C141.913 121.322 141.849 118.54 141.913 115.757C141.913 110.128 141.978 104.499 141.654 98.8693C141.525 96.734 141.265 92.9164 138.738 92.3341C135.304 91.6223 134.656 96.1517 134.526 98.4811C133.878 107.863 134.072 117.375 134.461 126.822C134.526 129.41 134.591 132.128 135.563 134.586C135.952 135.492 136.535 136.528 137.636 136.657Z" fill="#4ABCA9"/>
<path d="M168.73 86.6401C170.156 86.5753 170.156 88.7753 168.73 88.84C167.564 88.84 166.333 88.84 165.166 88.84C163.74 88.7753 163.74 86.6401 165.166 86.6401C166.333 86.7048 167.564 86.7048 168.73 86.6401ZM170.091 91.2341C170.156 89.8106 172.294 89.8106 172.294 91.2341C172.23 106.763 172.1 122.292 172.035 137.822C171.97 139.18 169.832 139.18 169.832 137.822C169.897 127.728 169.961 117.634 170.026 107.604C167.823 114.851 165.555 122.098 163.157 129.281C163.157 129.345 163.157 129.345 163.157 129.345C163.157 132.192 163.092 134.975 163.092 137.822C163.092 139.18 160.889 139.18 160.889 137.822C161.019 122.292 161.148 106.763 161.213 91.2341C161.213 89.8106 163.416 89.8106 163.416 91.2341C163.352 101.522 163.287 111.81 163.222 122.098C165.555 114.657 167.888 107.216 170.091 99.7104C170.091 96.8634 170.091 94.0811 170.091 91.2341Z" fill="#4ABCA9"/>
<path d="M91.3486 169.241C91.9318 175.324 91.7374 181.6 91.6726 187.747C91.6726 190.594 91.7374 193.506 91.6726 196.353C91.6078 199.458 91.6726 202.823 90.8302 205.8V205.864C90.1173 208 88.7565 210.135 86.4236 210.523C84.8036 210.847 83.2483 210.199 82.2115 208.905C80.0731 206.252 80.0083 202.305 79.8786 199.07C79.6842 193.959 79.5546 188.847 79.5546 183.735C79.5546 181.018 79.6194 178.365 79.749 175.647C79.8138 173.318 79.8138 170.924 80.073 168.594C80.5267 165.23 82.2115 161.477 86.2292 161.865C89.8582 162.253 91.0894 166.135 91.3486 169.241ZM85.2572 208.388C87.1365 208.711 88.2381 206.77 88.6917 205.282C89.5989 202.305 89.4693 198.876 89.4693 195.77C89.5341 193.053 89.4693 190.27 89.5341 187.488C89.5341 181.859 89.5989 176.229 89.2749 170.6C89.1453 168.465 88.8861 164.647 86.3588 164.065C82.9243 163.353 82.2763 167.882 82.1467 170.212C81.4987 179.594 81.6931 189.106 82.0819 198.553C82.1467 201.141 82.2115 203.858 83.1835 206.317C83.5724 207.223 84.1556 208.258 85.2572 208.388Z" fill="#4ABCA9"/>
<path d="M116.805 162.706C118.749 163.806 119.462 166.071 119.202 168.206C118.749 172.541 114.472 173.641 110.778 173.382C110.843 185.417 110.908 197.453 110.972 209.552C110.972 210.911 108.834 210.911 108.769 209.552C108.704 194.023 108.575 178.494 108.51 162.965C108.51 162.447 108.899 161.865 109.741 161.865C112.009 161.735 114.666 161.606 116.805 162.706ZM117.064 167.947C117.193 166.33 116.675 164.906 115.12 164.388C113.759 163.935 112.204 163.935 110.713 164C110.713 166.394 110.713 168.788 110.713 171.247C113.305 171.441 116.74 170.988 117.064 167.947Z" fill="#4ABCA9"/>
<path d="M143.25 162.965C143.315 161.541 145.453 161.541 145.453 162.965C145.388 178.494 145.259 194.023 145.194 209.552C145.129 210.911 142.991 210.911 142.991 209.552C143.055 199.458 143.12 189.364 143.185 179.335C140.982 186.582 138.714 193.829 136.316 201.011C136.316 201.076 136.316 201.076 136.316 201.076C136.316 203.923 136.251 206.705 136.251 209.552C136.251 210.911 134.048 210.911 134.048 209.552C134.178 194.023 134.307 178.494 134.372 162.965C134.372 161.541 136.575 161.541 136.575 162.965C136.51 173.253 136.446 183.541 136.381 193.829C138.714 186.388 141.047 178.947 143.25 171.441C143.25 168.594 143.25 165.812 143.25 162.965Z" fill="#4ABCA9"/>
<path d="M168.95 208.452C170.376 208.452 170.376 210.652 168.95 210.588C166.747 210.588 164.479 210.588 162.276 210.588C161.757 210.717 161.174 210.135 161.174 209.552C161.109 194.023 160.98 178.494 160.915 162.965C160.915 162.383 161.304 161.865 162.017 161.865C164.285 161.8 166.618 161.8 168.95 161.865C170.376 161.865 170.376 164.065 168.95 164C167.006 164 165.062 164 163.053 164C163.118 170.988 163.183 178.041 163.248 185.029C164.933 184.965 166.682 185.029 168.367 185.029C169.793 185.029 169.793 187.229 168.367 187.229C166.682 187.164 164.933 187.165 163.248 187.165C163.248 194.282 163.313 201.335 163.378 208.452C165.257 208.388 167.071 208.388 168.95 208.452Z" fill="#4ABCA9"/>
<path d="M197.168 162.965C197.233 178.494 197.363 194.023 197.427 209.552C197.427 210.911 195.289 210.911 195.224 209.552C195.224 202.111 195.159 194.67 195.095 187.294C192.697 187.229 190.234 187.229 187.837 187.229C187.837 194.67 187.902 202.111 187.966 209.552C187.966 210.911 185.763 210.911 185.763 209.552C185.698 194.023 185.569 178.494 185.504 162.965C185.504 161.541 187.642 161.541 187.642 162.965C187.707 170.341 187.772 177.653 187.837 185.029C190.234 185.029 192.697 185.029 195.095 185.094C195.03 177.718 195.03 170.341 194.965 162.965C194.965 161.541 197.103 161.541 197.168 162.965Z" fill="#4ABCA9"/>
<path d="M223.649 161.865C225.01 161.865 225.01 164.065 223.649 164C222.353 164 220.993 164 219.696 164C219.826 179.141 219.891 194.347 220.02 209.552C220.02 210.911 217.817 210.911 217.817 209.552C217.688 194.347 217.623 179.141 217.558 164C216.132 164 214.707 164 213.346 164C211.92 164.065 211.92 161.865 213.346 161.865C216.78 161.8 220.215 161.8 223.649 161.865Z" fill="#4ABCA9"/>
<path d="M249.326 162.965C249.39 161.541 251.529 161.541 251.529 162.965C251.464 178.494 251.335 194.023 251.27 209.552C251.205 210.911 249.066 210.911 249.066 209.552C249.131 199.458 249.196 189.364 249.261 179.335C247.058 186.582 244.79 193.829 242.392 201.011C242.392 201.076 242.392 201.076 242.392 201.076C242.392 203.923 242.327 206.705 242.327 209.552C242.327 210.911 240.124 210.911 240.124 209.552C240.253 194.023 240.383 178.494 240.448 162.965C240.448 161.541 242.651 161.541 242.651 162.965C242.586 173.253 242.521 183.541 242.457 193.829C244.79 186.388 247.122 178.947 249.326 171.441C249.326 168.594 249.326 165.812 249.326 162.965Z" fill="#4ABCA9"/>
<path d="M276.551 162.706C278.495 163.806 279.208 166.071 278.949 168.206C278.495 172.541 274.218 173.641 270.525 173.382C270.589 185.417 270.654 197.453 270.719 209.552C270.719 210.911 268.58 210.911 268.516 209.552C268.451 194.023 268.321 178.494 268.256 162.965C268.256 162.447 268.645 161.865 269.488 161.865C271.756 161.735 274.413 161.606 276.551 162.706ZM276.81 167.947C276.94 166.33 276.421 164.906 274.866 164.388C273.505 163.935 271.95 163.935 270.46 164C270.46 166.394 270.46 168.788 270.46 171.247C273.052 171.441 276.486 170.988 276.81 167.947Z" fill="#4ABCA9"/>
</svg>
