<svg width="96" height="65" viewBox="0 0 96 65" fill="none" xmlns="http://www.w3.org/2000/svg">
<path fill-rule="evenodd" clip-rule="evenodd" d="M11.6229 0.000625362C12.0224 -0.00593881 12.579 0.0400104 12.8671 0.0990879C13.1552 0.151601 13.6136 0.289449 13.8821 0.40104C14.2422 0.552016 14.4714 0.709555 14.7399 0.972122C14.9952 1.22812 15.1393 1.43818 15.2179 1.66792C15.2834 1.87798 15.3357 2.27839 15.3488 2.78383C15.3685 3.33522 15.3488 3.68312 15.2768 3.93256C15.2244 4.12949 15.1066 4.42488 15.0083 4.58898C14.9167 4.75308 14.7595 4.97627 14.6613 5.08129C14.5696 5.18632 14.2618 5.40294 13.9737 5.55391C13.6922 5.69833 13.188 5.90838 12.8671 6.00684C12.3891 6.15782 12.1533 6.19064 11.6229 6.1972C11.0533 6.1972 10.9288 6.17751 10.6735 6.03966C10.5098 5.95433 10.1889 5.6852 9.95317 5.44889C9.69125 5.17975 9.44897 4.85155 9.318 4.58898C9.20668 4.35267 9.07572 4.04415 9.02988 3.89974C8.98405 3.75533 8.94476 3.30897 8.93821 2.1865L9.27217 1.50382C9.52754 0.978686 9.69125 0.748941 9.92698 0.532324C10.1038 0.374783 10.3919 0.190986 10.5752 0.125344C10.8241 0.0334458 11.0795 0.000625362 11.6229 0.000625362ZM12.1141 9.78124C12.723 9.77467 13.1028 9.80093 13.3255 9.86658C13.5088 9.92565 13.7838 10.0766 13.941 10.2145C14.0981 10.3523 14.2815 10.5689 14.3404 10.6937C14.4059 10.8184 14.491 11.1006 14.5238 11.3173C14.5631 11.5339 14.6285 12.7876 14.6744 14.107C14.7333 15.9319 14.7333 16.8312 14.6744 17.8814C14.6351 18.6363 14.5696 19.7194 14.5369 20.2773C14.5041 20.8353 14.4321 22.2991 14.3732 23.5266C14.3208 24.7541 14.2488 26.894 14.2095 28.2856C14.1702 29.6772 14.144 32.7296 14.144 35.0796C14.144 37.423 14.1702 40.6722 14.2095 42.3001C14.2422 43.9215 14.3077 47.7484 14.347 50.8007C14.3928 53.8531 14.4256 57.5618 14.4321 59.0388C14.4386 60.8833 14.4125 61.9598 14.3535 62.4521C14.3077 62.846 14.2357 63.3646 14.1964 63.6009C14.1571 63.8372 14.0916 64.0998 14.0458 64.1917C13.9999 64.2835 13.8755 64.4345 13.7576 64.533C13.6463 64.638 13.4302 64.7496 13.2796 64.789C13.1225 64.8284 12.7754 64.8481 12.5069 64.8284C12.2057 64.8152 11.8914 64.743 11.6884 64.6577C11.5116 64.5789 11.2628 64.4411 11.1515 64.3492C11.0336 64.2639 10.8634 64.0669 10.7717 63.9094C10.68 63.7584 10.5621 63.4696 10.5032 63.2727C10.405 62.9576 10.3919 62.3668 10.3723 58.7106C10.3526 56.4 10.333 54.3913 10.3133 54.2469C10.2937 54.1025 10.2413 53.9319 10.202 53.8596C10.1169 53.7415 10.1103 53.7415 9.88769 53.8531C9.76328 53.9187 9.42277 54.2141 9.1412 54.5029C8.85963 54.7983 8.45365 55.2447 8.25066 55.4941C8.04111 55.7436 7.69406 56.2359 7.46488 56.5772C7.24224 56.9186 6.81661 57.7063 6.5154 58.3167C6.21418 58.9272 5.73617 60.0103 5.44805 60.7126C5.15993 61.415 4.83253 62.183 4.72776 62.4193C4.62299 62.6556 4.51822 62.9248 4.49857 63.0232C4.47238 63.1283 4.33487 63.4499 4.19081 63.7453C4.0533 64.0472 3.83066 64.4017 3.6997 64.533C3.57528 64.6708 3.37229 64.8349 3.26097 64.894C3.09727 64.9793 2.90083 65.0056 2.48829 64.999C2.18053 64.9925 1.78764 64.9531 1.60429 64.9137C1.42749 64.8743 1.13283 64.789 0.94948 64.7365C0.77268 64.6774 0.523851 64.5658 0.412533 64.4805C0.294666 64.3951 0.150607 64.2376 0.0982221 64.126C0.045837 64.0144 0 63.7912 0 63.614C0 63.4433 0.0589332 63.0232 0.130963 62.6819C0.20954 62.3406 0.301215 61.9073 0.333956 61.7301C0.373244 61.5463 0.432178 61.2837 0.464918 61.1393C0.497659 60.9949 0.550043 60.7717 0.582784 60.647C0.615525 60.5223 0.713747 60.135 0.805421 59.7937C0.903643 59.4523 1.09354 58.8287 1.2376 58.4152C1.37511 58.0016 1.58465 57.4371 1.68942 57.168C1.79419 56.8989 2.01028 56.4131 2.16743 56.0849C2.32459 55.7567 2.6258 55.1856 2.83534 54.8049C3.05143 54.4242 3.46397 53.7809 3.75863 53.3739C4.04675 52.9604 4.33487 52.5599 4.38725 52.4877C4.43964 52.409 4.68847 52.1136 4.94385 51.8248C5.19267 51.5425 5.76891 50.978 6.22073 50.571C6.67255 50.164 7.45178 49.4879 7.95599 49.0612C8.4602 48.6346 8.93166 48.2276 9.01024 48.1488C9.08882 48.0766 9.3311 47.8337 9.55374 47.6171C9.83531 47.3414 9.99246 47.1248 10.0776 46.8951C10.1889 46.5997 10.2085 46.173 10.274 42.8909C10.3133 40.8691 10.3788 37.633 10.4115 35.7031C10.4443 33.7733 10.4967 31.5349 10.5752 29.2834L8.83999 29.2506C7.54346 29.2309 6.98032 29.1915 6.61362 29.1127C6.34515 29.0471 5.84094 28.8633 5.50044 28.6992C4.98968 28.4497 4.78669 28.3053 4.36761 27.8787C4.07294 27.5767 3.64077 27.0253 3.31336 26.5264C3.01214 26.0669 2.61926 25.3974 2.43591 25.0364C2.25911 24.6753 2.00373 24.0977 1.87932 23.7564C1.74835 23.415 1.59775 22.9555 1.53881 22.7389C1.48643 22.5223 1.39475 22.135 1.34237 21.8856C1.29653 21.6296 1.2245 21.0716 1.18521 20.6384C1.13938 20.1067 1.13283 19.5619 1.17867 18.9645C1.21141 18.4788 1.27689 17.888 1.31618 17.6517C1.35547 17.4154 1.42749 17.0346 1.48643 16.7983C1.53881 16.562 1.67632 16.1222 1.7811 15.8137C1.89241 15.5052 2.05612 15.1048 2.14124 14.9276C2.23292 14.7438 2.46865 14.3499 2.66509 14.0414C2.88118 13.7132 3.30026 13.2143 3.69315 12.8205C4.0533 12.4594 4.57715 12.0131 4.84562 11.8424C5.1141 11.6652 5.65759 11.3698 6.05703 11.1794C6.45647 10.989 7.08509 10.733 7.46488 10.6083C7.84467 10.4836 8.434 10.3064 8.77451 10.2145C9.11501 10.1226 9.63231 10.0175 9.92043 9.9716C10.2086 9.93222 10.6211 9.87314 10.8372 9.84688C11.0533 9.81406 11.6295 9.7878 12.1141 9.78124ZM7.85777 15.9778C7.51726 16.201 6.99996 16.5948 6.71839 16.8377C6.43027 17.0872 5.9981 17.5401 5.74927 17.8486C5.50044 18.1571 5.19922 18.5969 5.08136 18.8332C4.96349 19.0695 4.82598 19.424 4.78014 19.6209C4.7343 19.8179 4.69502 20.1461 4.69502 20.343C4.70157 20.5399 4.7343 20.8353 4.77359 20.9994C4.81943 21.1635 4.91111 21.4589 4.98968 21.6558C5.06826 21.8527 5.23851 22.2072 5.36947 22.4435C5.50699 22.6798 5.76236 23.0409 5.93262 23.2444C6.10942 23.4544 6.45647 23.7826 6.71184 23.9861C6.96722 24.183 7.40595 24.4653 7.69406 24.6097C7.98218 24.7475 8.44055 24.9379 8.70903 25.0298C8.9775 25.1151 9.39003 25.2202 9.62577 25.2596C9.8615 25.2989 10.13 25.3318 10.2347 25.3318H10.4115C10.4115 15.7415 10.3919 14.6322 10.333 14.6322C10.2871 14.6387 9.8484 14.8488 9.36384 15.0982C8.87928 15.3542 8.19827 15.7481 7.85777 15.9778Z" fill="#4ABCA9"/>
<path d="M25.6216 14.9926C26.128 14.9926 26.128 15.8145 25.6216 15.7903C25.1394 15.7903 24.633 15.7903 24.1508 15.7903C24.199 21.4464 24.2231 27.1267 24.2713 32.8069C24.2713 33.3145 23.4515 33.3145 23.4515 32.8069C23.4033 27.1267 23.3792 21.4464 23.3551 15.7903C22.8246 15.7903 22.2941 15.7903 21.7878 15.7903C21.2573 15.8145 21.2573 14.9926 21.7878 14.9926C23.0657 14.9685 24.3437 14.9685 25.6216 14.9926Z" fill="#4ABCA9"/>
<path d="M35.4947 30.6557C35.6153 31.5259 35.3259 32.4202 34.5543 32.9036C33.7827 33.3871 32.7941 33.3629 31.9261 33.1937C31.7332 33.1453 31.6126 33.0245 31.6126 32.8069C31.5885 27.0058 31.5403 21.2047 31.5162 15.4035C31.5162 15.2102 31.6608 14.9926 31.9743 14.9926C32.8182 14.9443 33.8068 14.8959 34.5784 15.3069C35.3259 15.7178 35.5912 16.5638 35.4947 17.3614C35.3259 18.9809 33.7345 19.3918 32.336 19.2951C32.3601 22.4858 32.3842 25.7006 32.4083 28.8912C33.7345 28.7945 35.2536 29.1087 35.4947 30.6557ZM33.9756 15.9353C33.4693 15.7661 32.8906 15.7661 32.336 15.7903C32.336 16.6846 32.336 17.579 32.336 18.4975C33.3005 18.57 34.5784 18.4008 34.699 17.2647C34.7472 16.6605 34.5543 16.1287 33.9756 15.9353ZM34.0962 32.2268C34.6508 31.8884 34.7954 31.26 34.6749 30.6799C34.4338 29.6888 33.2764 29.6163 32.4083 29.6888C32.4083 30.6073 32.4324 31.5259 32.4324 32.4685C32.987 32.5411 33.6139 32.5169 34.0962 32.2268Z" fill="#4ABCA9"/>
<path d="M45.6662 17.7482C45.8832 20.0203 45.8108 22.3649 45.7867 24.6612C45.7867 25.7247 45.8108 26.8124 45.7867 27.876C45.7626 29.0362 45.7867 30.2931 45.4733 31.405V31.4292C45.208 32.2268 44.7017 33.0245 43.8336 33.1695C43.2308 33.2904 42.6521 33.0487 42.2663 32.5652C41.4706 31.5742 41.4465 30.0998 41.3983 28.8912C41.3259 26.9816 41.2777 25.0721 41.2777 23.1626C41.2777 22.1474 41.3018 21.1563 41.3501 20.1411C41.3742 19.271 41.3742 18.3766 41.4706 17.5065C41.6394 16.2495 42.2663 14.8476 43.7613 14.9926C45.1116 15.1377 45.5697 16.5879 45.6662 17.7482ZM43.3996 32.3719C44.0989 32.4927 44.5088 31.7676 44.6776 31.2116C45.0151 30.0997 44.9669 28.8187 44.9669 27.6584C44.991 26.6432 44.9669 25.6039 44.991 24.5645C44.991 22.4616 45.0151 20.3587 44.8946 18.2558C44.8463 17.4581 44.7499 16.032 43.8095 15.8145C42.5316 15.5486 42.2904 17.2406 42.2422 18.1107C42.0011 21.6156 42.0734 25.1688 42.2181 28.6978C42.2422 29.6647 42.2663 30.6799 42.628 31.5984C42.7727 31.9368 42.9897 32.3235 43.3996 32.3719Z" fill="#4ABCA9"/>
<path d="M54.9694 13.6874C55.4999 13.6632 55.4999 14.485 54.9694 14.5092C54.5354 14.5092 54.0772 14.5092 53.6432 14.5092C53.1127 14.485 53.1127 13.6874 53.6432 13.6874C54.0772 13.7115 54.5354 13.7115 54.9694 13.6874ZM55.4757 15.4035C55.4999 14.8718 56.2956 14.8718 56.2956 15.4035C56.2715 21.2047 56.2232 27.0058 56.1991 32.8069C56.175 33.3145 55.3793 33.3145 55.3793 32.8069C55.4034 29.0362 55.4275 25.2655 55.4516 21.5189C54.6318 24.2261 53.7879 26.9333 52.8957 29.6163C52.8957 29.6405 52.8957 29.6405 52.8957 29.6405C52.8957 30.704 52.8716 31.7434 52.8716 32.8069C52.8716 33.3145 52.0518 33.3145 52.0518 32.8069C52.1 27.0058 52.1482 21.2047 52.1724 15.4035C52.1724 14.8718 52.9922 14.8718 52.9922 15.4035C52.9681 19.2468 52.944 23.09 52.9198 26.9333C53.7879 24.1536 54.6559 21.3739 55.4757 18.57C55.4757 17.5065 55.4757 16.4671 55.4757 15.4035Z" fill="#4ABCA9"/>
<path d="M26.1762 44.5441C26.3932 46.8163 26.3209 49.1609 26.2968 51.4572C26.2968 52.5207 26.3209 53.6084 26.2968 54.672C26.2727 55.8322 26.2968 57.0891 25.9833 58.201V58.2252C25.7181 59.0228 25.2117 59.8205 24.3437 59.9655C23.7409 60.0863 23.1622 59.8446 22.7764 59.3612C21.9807 58.3702 21.9566 56.8957 21.9083 55.6872C21.836 53.7776 21.7878 51.8681 21.7878 49.9585C21.7878 48.9433 21.8119 47.9523 21.8601 46.9371C21.8842 46.0669 21.8842 45.1726 21.9807 44.3024C22.1495 43.0455 22.7764 41.6436 24.2713 41.7886C25.6216 41.9336 26.0798 43.3839 26.1762 44.5441ZM23.9097 59.1678C24.6089 59.2887 25.0188 58.5635 25.1876 58.0076C25.5252 56.8957 25.477 55.6146 25.477 54.4544C25.5011 53.4392 25.477 52.3998 25.5011 51.3605C25.5011 49.2576 25.5252 47.1547 25.4046 45.0517C25.3564 44.2541 25.26 42.828 24.3196 42.6104C23.0416 42.3445 22.8005 44.0365 22.7523 44.9067C22.5111 48.4116 22.5835 51.9648 22.7282 55.4938C22.7523 56.4606 22.7764 57.4758 23.1381 58.3943C23.2827 58.7327 23.4997 59.1195 23.9097 59.1678Z" fill="#4ABCA9"/>
<path d="M35.6482 42.1028C36.3716 42.5137 36.6368 43.3597 36.5404 44.1574C36.3716 45.7769 34.7802 46.1878 33.4058 46.0911C33.4299 50.587 33.454 55.0829 33.4781 59.6029C33.4781 60.1105 32.6824 60.1105 32.6583 59.6029C32.6342 53.8018 32.586 48.0006 32.5619 42.1995C32.5619 42.0061 32.7065 41.7886 33.02 41.7886C33.8639 41.7403 34.8525 41.6919 35.6482 42.1028ZM35.7447 44.0607C35.7929 43.4564 35.6 42.9247 35.0213 42.7313C34.515 42.5621 33.9363 42.5621 33.3817 42.5863C33.3817 43.4806 33.3817 44.3749 33.3817 45.2935C34.3462 45.366 35.6241 45.1968 35.7447 44.0607Z" fill="#4ABCA9"/>
<path d="M45.4883 42.1995C45.5125 41.6677 46.3082 41.6677 46.3082 42.1995C46.284 48.0006 46.2358 53.8018 46.2117 59.6029C46.1876 60.1105 45.3919 60.1105 45.3919 59.6029C45.416 55.8322 45.4401 52.0614 45.4642 48.3149C44.6444 51.0221 43.8005 53.7293 42.9083 56.4123C42.9083 56.4365 42.9083 56.4365 42.9083 56.4365C42.9083 57.5 42.8842 58.5394 42.8842 59.6029C42.8842 60.1105 42.0644 60.1105 42.0644 59.6029C42.1126 53.8018 42.1608 48.0006 42.1849 42.1995C42.1849 41.6677 43.0048 41.6677 43.0048 42.1995C42.9806 46.0428 42.9565 49.886 42.9324 53.7293C43.8005 50.9496 44.6685 48.1698 45.4883 45.366C45.4883 44.3024 45.4883 43.2631 45.4883 42.1995Z" fill="#4ABCA9"/>
<path d="M55.0513 59.192C55.5818 59.192 55.5818 60.0138 55.0513 59.9897C54.2315 59.9897 53.3876 59.9897 52.5678 59.9897C52.3749 60.038 52.1578 59.8205 52.1578 59.6029C52.1337 53.8018 52.0855 48.0006 52.0614 42.1995C52.0614 41.982 52.2061 41.7886 52.4713 41.7886C53.3153 41.7644 54.1833 41.7644 55.0513 41.7886C55.5818 41.7886 55.5818 42.6104 55.0513 42.5863C54.328 42.5863 53.6046 42.5863 52.8571 42.5863C52.8812 45.1968 52.9053 47.8315 52.9294 50.442C53.5564 50.4178 54.2074 50.442 54.8343 50.442C55.3648 50.442 55.3648 51.2638 54.8343 51.2638C54.2074 51.2396 53.5564 51.2396 52.9294 51.2396C52.9294 53.8985 52.9536 56.5332 52.9777 59.192C53.6769 59.1678 54.3521 59.1678 55.0513 59.192Z" fill="#4ABCA9"/>
<path d="M65.551 42.1995C65.5751 48.0006 65.6233 53.8018 65.6474 59.6029C65.6474 60.1105 64.8517 60.1105 64.8276 59.6029C64.8276 56.8232 64.8035 54.0435 64.7794 51.288C63.8872 51.2638 62.9709 51.2638 62.0788 51.2638C62.0788 54.0435 62.1029 56.8232 62.127 59.6029C62.127 60.1105 61.3072 60.1105 61.3072 59.6029C61.2831 53.8018 61.2348 48.0006 61.2107 42.1995C61.2107 41.6677 62.0064 41.6677 62.0064 42.1995C62.0305 44.9551 62.0547 47.6864 62.0788 50.442C62.9709 50.442 63.8872 50.442 64.7794 50.4661C64.7552 47.7106 64.7552 44.9551 64.7311 42.1995C64.7311 41.6677 65.5268 41.6677 65.551 42.1995Z" fill="#4ABCA9"/>
<path d="M75.4044 41.7886C75.9108 41.7886 75.9108 42.6104 75.4044 42.5863C74.9222 42.5863 74.4158 42.5863 73.9336 42.5863C73.9818 48.2424 74.0059 53.9226 74.0541 59.6029C74.0541 60.1105 73.2343 60.1105 73.2343 59.6029C73.1861 53.9226 73.162 48.2424 73.1379 42.5863C72.6074 42.5863 72.0769 42.5863 71.5706 42.5863C71.0401 42.6104 71.0401 41.7886 71.5706 41.7886C72.8485 41.7644 74.1265 41.7644 75.4044 41.7886Z" fill="#4ABCA9"/>
<path d="M84.9584 42.1995C84.9825 41.6677 85.7782 41.6677 85.7782 42.1995C85.7541 48.0006 85.7059 53.8018 85.6818 59.6029C85.6576 60.1105 84.8619 60.1105 84.8619 59.6029C84.8861 55.8322 84.9102 52.0614 84.9343 48.3149C84.1144 51.0221 83.2705 53.7293 82.3784 56.4123C82.3784 56.4365 82.3784 56.4365 82.3784 56.4365C82.3784 57.5 82.3543 58.5394 82.3543 59.6029C82.3543 60.1105 81.5344 60.1105 81.5344 59.6029C81.5827 53.8018 81.6309 48.0006 81.655 42.1995C81.655 41.6677 82.4748 41.6677 82.4748 42.1995C82.4507 46.0428 82.4266 49.886 82.4025 53.7293C83.2705 50.9496 84.1386 48.1698 84.9584 45.366C84.9584 44.3024 84.9584 43.2631 84.9584 42.1995Z" fill="#4ABCA9"/>
<path d="M95.0888 42.1028C95.8121 42.5137 96.0774 43.3597 95.9809 44.1574C95.8121 45.7769 94.2207 46.1878 92.8463 46.0911C92.8704 50.587 92.8946 55.0829 92.9187 59.6029C92.9187 60.1105 92.1229 60.1105 92.0988 59.6029C92.0747 53.8018 92.0265 48.0006 92.0024 42.1995C92.0024 42.0061 92.1471 41.7886 92.4605 41.7886C93.3045 41.7403 94.2931 41.6919 95.0888 42.1028ZM95.1852 44.0607C95.2335 43.4564 95.0406 42.9247 94.4619 42.7313C93.9555 42.5621 93.3768 42.5621 92.8222 42.5863C92.8222 43.4806 92.8222 44.3749 92.8222 45.2935C93.7867 45.366 95.0647 45.1968 95.1852 44.0607Z" fill="#4ABCA9"/>
</svg>
